<?xml version="1.0" encoding="UTF-8" standalone="no"?>
<!-- Created with Inkscape (http://www.inkscape.org/) -->

<svg
   version="1.1"
   id="svg2"
   width="704.62665"
   height="674.67999"
   viewBox="0 0 704.62665 674.67999"
   sodipodi:docname="holnalu.eps"
   xmlns:inkscape="http://www.inkscape.org/namespaces/inkscape"
   xmlns:sodipodi="http://sodipodi.sourceforge.net/DTD/sodipodi-0.dtd"
   xmlns="http://www.w3.org/2000/svg"
   xmlns:svg="http://www.w3.org/2000/svg">
  <defs
     id="defs6" />
  <sodipodi:namedview
     id="namedview4"
     pagecolor="#ffffff"
     bordercolor="#000000"
     borderopacity="0.25"
     inkscape:showpageshadow="2"
     inkscape:pageopacity="0.0"
     inkscape:pagecheckerboard="0"
     inkscape:deskcolor="#d1d1d1" />
  <g
     id="g8"
     inkscape:groupmode="layer"
     inkscape:label="ink_ext_XXXXXX"
     transform="matrix(1.3333333,0,0,-1.3333333,0,674.68)">
    <g
       id="g10"
       transform="scale(0.1)">
      <path
         d="m 2366.48,2965.31 h 547.46 c 0,119.39 0,235.86 113.56,570.74 113.57,334.88 241.67,719.25 361.08,917.27 119.4,198.02 276.65,428.06 276.65,428.06 26.2,40.77 32,133.96 -66.99,168.9 -99,34.95 -163.07,-26.21 -180.54,-139.78 -17.47,-113.56 -125.2,-594.04 -297.02,-917.27 -72.78,-131.04 -206.74,-378.56 -512.5,-378.56 -334.88,2.92 -521.25,366.92 -658.11,792.06 -46.59,151.42 -78.62,294.11 -122.3,512.5 -14.55,75.72 -18.92,141.25 -152.88,138.33 -125.22,-11.65 -146.33,-133.22 -58.97,-242.42 124.49,-174.72 286.11,-421.51 388.75,-679.22 102.65,-286.1 310.12,-794.97 331.97,-910.71 21.84,-115.75 29.12,-198.75 29.84,-259.9"
         style="fill:#353436;fill-opacity:1;fill-rule:nonzero;stroke:none"
         id="path12" />
      <path
         d="m 2301.69,4081.32 c 0,176.11 142.75,318.86 318.86,318.86 176.12,0 318.86,-142.75 318.86,-318.86 0,-176.11 -142.74,-318.86 -318.86,-318.86 -176.11,0 -318.86,142.75 -318.86,318.86"
         style="fill:#151312;fill-opacity:1;fill-rule:nonzero;stroke:none"
         id="path14" />
      <path
         d="m 2918.1,2962.51 172.16,-519.67 c 113.33,37.55 223.91,74.17 577.51,71.69 353.61,-2.49 758.76,-3.21 984.29,-54.3 225.51,-51.09 493.32,-128 493.32,-128 46.96,-12.08 137.23,11.74 139.29,116.71 2.03,104.96 -76.18,146.55 -189.49,127.42 -113.27,-19.14 -603.27,-67.96 -964.14,-6.51 -147.28,27.87 -424.34,77.2 -520.52,367.45 -102.56,318.81 184.38,610.19 544.92,873.81 129.08,91.84 254.47,167.11 448.04,277.26 67.32,37.62 128.14,62.37 83.21,188.61 -50.44,115.22 -172.48,97.02 -248.65,-20.26 -126.67,-173.11 -310.12,-404.14 -522.51,-582.61 -239.3,-187.4 -657.07,-544.4 -760.11,-601.53 -103,-57.14 -179.48,-90.14 -237.32,-110.07"
         style="fill:#cf1d2b;fill-opacity:1;fill-rule:nonzero;stroke:none"
         id="path16" />
      <path
         d="m 3957.14,3374.99 c 167.13,55.37 347.56,-35.24 402.94,-202.41 55.37,-167.19 -35.24,-347.6 -202.4,-402.95 -167.2,-55.39 -347.6,35.22 -402.96,202.39 -55.39,167.17 35.23,347.59 202.42,402.97"
         style="fill:#5a1018;fill-opacity:1;fill-rule:nonzero;stroke:none"
         id="path18" />
      <path
         d="m 3088.27,2437.99 -446.32,-317.07 c 69.15,-97.32 136.6,-192.23 237.97,-531.05 101.34,-338.75 219.52,-726.311 236.89,-956.89 17.34,-230.582 22.36,-509.171 22.36,-509.171 2.26,-48.3871 51.49,-127.72697 152.45,-98.9301 100.89,28.8711 117.7,115.8511 66.21,218.5311 -51.57,102.719 -242,556.781 -289.1,919.8 -16.56,148.99 -50.71,428.34 198.57,605.41 274.69,191.57 637.43,2.79 995.22,-264.54 125.67,-96.47 234.41,-194.23 396.5,-346.98 55.72,-53.34 97.25,-104.18 204.74,-24.23 95.37,82.01 42.15,193.35 -92.32,231.78 -202.65,70.32 -477.33,177.96 -710.26,328.55 -249.37,173.83 -713.23,468.49 -798.08,550.19 -84.83,81.73 -138.85,145.16 -174.83,194.6"
         style="fill:#e79c19;fill-opacity:1;fill-rule:nonzero;stroke:none"
         id="path20" />
      <path
         d="m 3787.41,1565.71 c 101.96,-143.56 68.27,-342.65 -75.3,-444.61 -143.54,-102 -342.61,-68.29 -444.61,75.28 -101.96,143.56 -68.27,342.58 75.3,444.61 143.58,102 342.61,68.28 444.61,-75.28"
         style="fill:#b25d1e;fill-opacity:1;fill-rule:nonzero;stroke:none"
         id="path22" />
      <path
         d="m 2637.45,2117.86 -441.29,323.93 c -70.65,-96.25 -139.59,-190.13 -429.28,-392.89 -289.72,-202.77 -620.42,-436.84 -833.872,-525.79 -213.43,-88.97 -476.305,-181.34 -476.305,-181.34 -45.265,-17.31 -105.078,-89.07 -45.965,-175.81 59.145,-86.75 146.981,-75.38 228.278,5.83 81.257,81.22 452.444,404.78 782.234,563.67 136.19,62.62 390.64,182.84 637.12,1.94 268.26,-200.51 203.1,-604.2 61.84,-1027.931 -52.03,-149.629 -110.64,-283.637 -204.68,-485.559 -33.08,-69.609 -68.32,-125.0311 41.39,-201.9217 107.86,-64.7188 196.81,20.793 191,160.5317 2.99,214.468 18.76,509.07 88.54,777.558 86.53,291.362 220.39,824.352 271.3,930.582 50.89,106.27 94.09,177.45 129.69,227.2"
         style="fill:#37663c;fill-opacity:1;fill-rule:nonzero;stroke:none"
         id="path24" />
      <path
         d="m 2029.3,1179.81 c -104.17,-141.89 -303.75,-172.53 -445.72,-68.31 -141.96,104.21 -172.57,303.74 -68.36,445.66 104.23,141.99 303.77,172.6 445.71,68.42 141.99,-104.22 172.6,-303.74 68.37,-445.77"
         style="fill:#1e3a1c;fill-opacity:1;fill-rule:nonzero;stroke:none"
         id="path26" />
      <path
         d="m 2364,2963.64 -169.51,-520.55 c -113.52,36.99 -224.28,73.04 -577.86,68.77 -353.61,-4.28 -758.739,-7.06 -984.009,-59.29 C 407.367,2400.33 139.949,2322.06 139.949,2322.06 93.0625,2309.75 2.66797,2333.1 0.0625,2438.07 -2.49609,2543.01 75.5078,2585 188.91,2566.45 c 113.371,-18.56 603.613,-64.9 964.17,-1.62 147.13,28.62 423.93,79.34 518.64,370.07 100.95,319.34 -187.47,609.26 -549.34,871.04 -129.544,91.19 -255.31,165.82 -449.435,274.99 -67.511,37.28 -128.457,61.72 -84.172,188.19 49.848,115.47 171.989,97.9 248.743,-19 127.547,-172.47 312.174,-402.57 525.464,-579.95 240.25,-186.19 659.82,-541.06 763.15,-597.67 103.29,-56.61 179.94,-89.23 237.87,-108.86"
         style="fill:#2d3492;fill-opacity:1;fill-rule:nonzero;stroke:none"
         id="path28" />
      <path
         d="m 1322.89,3370.83 c -167.41,54.53 -347.382,-36.99 -401.913,-204.45 -54.524,-167.46 37.007,-347.4 204.443,-401.92 167.48,-54.53 347.41,36.99 401.93,204.43 54.53,167.46 -36.99,347.42 -204.46,401.94"
         style="fill:#202554;fill-opacity:1;fill-rule:nonzero;stroke:none"
         id="path30" />
    </g>
  </g>
</svg>
